<mxfile host="drawio-plugin" agent="Mozilla/5.0 (Macintosh; Intel Mac OS X 10_15_7) AppleWebKit/537.36 (KHTML, like Gecko) Chrome/122.0.0.0 Safari/537.36" modified="2025-08-26T21:41:08.434Z" version="22.1.22" etag="JkJRDf6AG3XX5I9VOLQw" type="embed">
  <diagram id="C5RBs43oDa-KdzZeNtuy" name="Page-1">
    <mxGraphModel dx="3843" dy="1842" grid="1" gridSize="10" guides="1" tooltips="1" connect="1" arrows="1" fold="1" page="1" pageScale="1" pageWidth="827" pageHeight="1169" math="0" shadow="0">
      <root>
        <mxCell id="WIyWlLk6GJQsqaUBKTNV-0" />
        <mxCell id="WIyWlLk6GJQsqaUBKTNV-1" parent="WIyWlLk6GJQsqaUBKTNV-0" />
        <mxCell id="ERO_cMUE3S481gdJ_7yT-153" value="configuration" style="shape=folder;fontStyle=1;tabWidth=110;tabHeight=30;tabPosition=left;html=1;boundedLbl=1;labelInHeader=1;container=1;collapsible=0;recursiveResize=0;whiteSpace=wrap;" parent="WIyWlLk6GJQsqaUBKTNV-1" vertex="1">
          <mxGeometry x="827" y="930" width="493" height="270" as="geometry" />
        </mxCell>
        <mxCell id="ERO_cMUE3S481gdJ_7yT-149" value="&lt;b&gt;McpRouterConfiguration&lt;/b&gt;" style="swimlane;fontStyle=0;childLayout=stackLayout;horizontal=1;startSize=26;fillColor=#d5e8d4;horizontalStack=0;resizeParent=1;resizeParentMax=0;resizeLast=0;collapsible=1;marginBottom=0;whiteSpace=wrap;html=1;strokeColor=#82b366;" parent="ERO_cMUE3S481gdJ_7yT-153" vertex="1">
          <mxGeometry x="25" y="190" width="440" height="60" as="geometry" />
        </mxCell>
        <mxCell id="ERO_cMUE3S481gdJ_7yT-151" value="" style="line;strokeWidth=1;fillColor=none;align=left;verticalAlign=middle;spacingTop=-1;spacingLeft=3;spacingRight=3;rotatable=0;labelPosition=right;points=[];portConstraint=eastwest;strokeColor=inherit;" parent="ERO_cMUE3S481gdJ_7yT-149" vertex="1">
          <mxGeometry y="26" width="440" height="8" as="geometry" />
        </mxCell>
        <mxCell id="ERO_cMUE3S481gdJ_7yT-152" value="+ mcpRoutes(handler: McpRequestHandler): RouterFunction&amp;lt;ServerResponse&amp;gt;" style="text;strokeColor=none;fillColor=none;align=left;verticalAlign=top;spacingLeft=4;spacingRight=4;overflow=hidden;rotatable=0;points=[[0,0.5],[1,0.5]];portConstraint=eastwest;whiteSpace=wrap;html=1;" parent="ERO_cMUE3S481gdJ_7yT-149" vertex="1">
          <mxGeometry y="34" width="440" height="26" as="geometry" />
        </mxCell>
        <mxCell id="ERO_cMUE3S481gdJ_7yT-145" value="&lt;b&gt;SecurityConfiguration&lt;/b&gt;" style="swimlane;fontStyle=0;childLayout=stackLayout;horizontal=1;startSize=26;fillColor=#d5e8d4;horizontalStack=0;resizeParent=1;resizeParentMax=0;resizeLast=0;collapsible=1;marginBottom=0;whiteSpace=wrap;html=1;strokeColor=#82b366;" parent="ERO_cMUE3S481gdJ_7yT-153" vertex="1">
          <mxGeometry x="25" y="60" width="300" height="86" as="geometry" />
        </mxCell>
        <mxCell id="ERO_cMUE3S481gdJ_7yT-148" value="- challengeEntryPoint: OAuthChallengeEntryPoint" style="text;align=left;verticalAlign=top;spacingLeft=4;spacingRight=4;overflow=hidden;rotatable=0;points=[[0,0.5],[1,0.5]];portConstraint=eastwest;whiteSpace=wrap;html=1;" parent="ERO_cMUE3S481gdJ_7yT-145" vertex="1">
          <mxGeometry y="26" width="300" height="26" as="geometry" />
        </mxCell>
        <mxCell id="ERO_cMUE3S481gdJ_7yT-146" value="" style="line;strokeWidth=1;fillColor=none;align=left;verticalAlign=middle;spacingTop=-1;spacingLeft=3;spacingRight=3;rotatable=0;labelPosition=right;points=[];portConstraint=eastwest;strokeColor=inherit;" parent="ERO_cMUE3S481gdJ_7yT-145" vertex="1">
          <mxGeometry y="52" width="300" height="8" as="geometry" />
        </mxCell>
        <mxCell id="ERO_cMUE3S481gdJ_7yT-147" value="+ filterChain(http: HttpSecurity): SecurityFilterChain" style="text;strokeColor=none;fillColor=none;align=left;verticalAlign=top;spacingLeft=4;spacingRight=4;overflow=hidden;rotatable=0;points=[[0,0.5],[1,0.5]];portConstraint=eastwest;whiteSpace=wrap;html=1;" parent="ERO_cMUE3S481gdJ_7yT-145" vertex="1">
          <mxGeometry y="60" width="300" height="26" as="geometry" />
        </mxCell>
        <mxCell id="ERO_cMUE3S481gdJ_7yT-156" value="security" style="shape=folder;fontStyle=1;tabWidth=110;tabHeight=30;tabPosition=left;html=1;boundedLbl=1;labelInHeader=1;container=1;collapsible=0;recursiveResize=0;whiteSpace=wrap;" parent="WIyWlLk6GJQsqaUBKTNV-1" vertex="1">
          <mxGeometry x="827" y="700" width="490" height="170" as="geometry" />
        </mxCell>
        <mxCell id="ERO_cMUE3S481gdJ_7yT-141" value="&lt;b&gt;OAuthChallengeEntryPoint&lt;/b&gt;" style="swimlane;fontStyle=0;childLayout=stackLayout;horizontal=1;startSize=26;fillColor=#ffe6cc;horizontalStack=0;resizeParent=1;resizeParentMax=0;resizeLast=0;collapsible=1;marginBottom=0;whiteSpace=wrap;html=1;strokeColor=#d79b00;" parent="ERO_cMUE3S481gdJ_7yT-156" vertex="1">
          <mxGeometry x="25" y="56" width="440" height="84" as="geometry" />
        </mxCell>
        <mxCell id="ERO_cMUE3S481gdJ_7yT-143" value="" style="line;strokeWidth=1;fillColor=none;align=left;verticalAlign=middle;spacingTop=-1;spacingLeft=3;spacingRight=3;rotatable=0;labelPosition=right;points=[];portConstraint=eastwest;strokeColor=inherit;" parent="ERO_cMUE3S481gdJ_7yT-141" vertex="1">
          <mxGeometry y="26" width="440" height="8" as="geometry" />
        </mxCell>
        <mxCell id="ERO_cMUE3S481gdJ_7yT-144" value="+ commence(request: HttpServletRequest,&amp;nbsp;&lt;div&gt;&lt;span style=&quot;white-space: pre;&quot;&gt;&#x9;&lt;/span&gt;response: HttpServletResponse, authException: AuthenticationException)&lt;/div&gt;" style="text;strokeColor=none;fillColor=none;align=left;verticalAlign=top;spacingLeft=4;spacingRight=4;overflow=hidden;rotatable=0;points=[[0,0.5],[1,0.5]];portConstraint=eastwest;whiteSpace=wrap;html=1;" parent="ERO_cMUE3S481gdJ_7yT-141" vertex="1">
          <mxGeometry y="34" width="440" height="50" as="geometry" />
        </mxCell>
        <mxCell id="ERO_cMUE3S481gdJ_7yT-139" value="model" style="shape=folder;fontStyle=1;tabWidth=110;tabHeight=30;tabPosition=left;html=1;boundedLbl=1;labelInHeader=1;container=1;collapsible=0;recursiveResize=0;whiteSpace=wrap;" parent="WIyWlLk6GJQsqaUBKTNV-1" vertex="1">
          <mxGeometry x="35" y="1020" width="750" height="610" as="geometry" />
        </mxCell>
        <mxCell id="ERO_cMUE3S481gdJ_7yT-85" value="&lt;b&gt;ToolSet&lt;/b&gt;" style="swimlane;fontStyle=0;childLayout=stackLayout;horizontal=1;startSize=26;fillColor=#e1d5e7;horizontalStack=0;resizeParent=1;resizeParentMax=0;resizeLast=0;collapsible=1;marginBottom=0;whiteSpace=wrap;html=1;strokeColor=#9673a6;" parent="ERO_cMUE3S481gdJ_7yT-139" vertex="1">
          <mxGeometry x="411" y="49" width="120" height="130" as="geometry" />
        </mxCell>
        <mxCell id="ERO_cMUE3S481gdJ_7yT-88" value="- id: int" style="text;strokeColor=none;fillColor=none;align=left;verticalAlign=top;spacingLeft=4;spacingRight=4;overflow=hidden;rotatable=0;points=[[0,0.5],[1,0.5]];portConstraint=eastwest;whiteSpace=wrap;html=1;" parent="ERO_cMUE3S481gdJ_7yT-85" vertex="1">
          <mxGeometry y="26" width="120" height="26" as="geometry" />
        </mxCell>
        <mxCell id="ERO_cMUE3S481gdJ_7yT-86" value="- name: String" style="text;strokeColor=none;fillColor=none;align=left;verticalAlign=top;spacingLeft=4;spacingRight=4;overflow=hidden;rotatable=0;points=[[0,0.5],[1,0.5]];portConstraint=eastwest;whiteSpace=wrap;html=1;" parent="ERO_cMUE3S481gdJ_7yT-85" vertex="1">
          <mxGeometry y="52" width="120" height="26" as="geometry" />
        </mxCell>
        <mxCell id="ERO_cMUE3S481gdJ_7yT-87" value="- description: String" style="text;strokeColor=none;fillColor=none;align=left;verticalAlign=top;spacingLeft=4;spacingRight=4;overflow=hidden;rotatable=0;points=[[0,0.5],[1,0.5]];portConstraint=eastwest;whiteSpace=wrap;html=1;" parent="ERO_cMUE3S481gdJ_7yT-85" vertex="1">
          <mxGeometry y="78" width="120" height="26" as="geometry" />
        </mxCell>
        <mxCell id="ERO_cMUE3S481gdJ_7yT-89" value="- tools: List&amp;lt;Tool&amp;gt;" style="text;strokeColor=none;fillColor=none;align=left;verticalAlign=top;spacingLeft=4;spacingRight=4;overflow=hidden;rotatable=0;points=[[0,0.5],[1,0.5]];portConstraint=eastwest;whiteSpace=wrap;html=1;" parent="ERO_cMUE3S481gdJ_7yT-85" vertex="1">
          <mxGeometry y="104" width="120" height="26" as="geometry" />
        </mxCell>
        <mxCell id="ERO_cMUE3S481gdJ_7yT-95" value="&lt;b&gt;Tool&lt;/b&gt;" style="swimlane;fontStyle=0;childLayout=stackLayout;horizontal=1;startSize=26;fillColor=#e1d5e7;horizontalStack=0;resizeParent=1;resizeParentMax=0;resizeLast=0;collapsible=1;marginBottom=0;whiteSpace=wrap;html=1;strokeColor=#9673a6;" parent="ERO_cMUE3S481gdJ_7yT-139" vertex="1">
          <mxGeometry x="571" y="50" width="150" height="182" as="geometry" />
        </mxCell>
        <mxCell id="ERO_cMUE3S481gdJ_7yT-96" value="- id: int" style="text;strokeColor=none;fillColor=none;align=left;verticalAlign=top;spacingLeft=4;spacingRight=4;overflow=hidden;rotatable=0;points=[[0,0.5],[1,0.5]];portConstraint=eastwest;whiteSpace=wrap;html=1;" parent="ERO_cMUE3S481gdJ_7yT-95" vertex="1">
          <mxGeometry y="26" width="150" height="26" as="geometry" />
        </mxCell>
        <mxCell id="ERO_cMUE3S481gdJ_7yT-97" value="- name: String" style="text;strokeColor=none;fillColor=none;align=left;verticalAlign=top;spacingLeft=4;spacingRight=4;overflow=hidden;rotatable=0;points=[[0,0.5],[1,0.5]];portConstraint=eastwest;whiteSpace=wrap;html=1;" parent="ERO_cMUE3S481gdJ_7yT-95" vertex="1">
          <mxGeometry y="52" width="150" height="26" as="geometry" />
        </mxCell>
        <mxCell id="ERO_cMUE3S481gdJ_7yT-98" value="- description: String" style="text;strokeColor=none;fillColor=none;align=left;verticalAlign=top;spacingLeft=4;spacingRight=4;overflow=hidden;rotatable=0;points=[[0,0.5],[1,0.5]];portConstraint=eastwest;whiteSpace=wrap;html=1;" parent="ERO_cMUE3S481gdJ_7yT-95" vertex="1">
          <mxGeometry y="78" width="150" height="26" as="geometry" />
        </mxCell>
        <mxCell id="ERO_cMUE3S481gdJ_7yT-101" value="+ requestMethod: String" style="text;strokeColor=none;fillColor=none;align=left;verticalAlign=top;spacingLeft=4;spacingRight=4;overflow=hidden;rotatable=0;points=[[0,0.5],[1,0.5]];portConstraint=eastwest;whiteSpace=wrap;html=1;" parent="ERO_cMUE3S481gdJ_7yT-95" vertex="1">
          <mxGeometry y="104" width="150" height="26" as="geometry" />
        </mxCell>
        <mxCell id="ERO_cMUE3S481gdJ_7yT-100" value="+ endpoint: String" style="text;strokeColor=none;fillColor=none;align=left;verticalAlign=top;spacingLeft=4;spacingRight=4;overflow=hidden;rotatable=0;points=[[0,0.5],[1,0.5]];portConstraint=eastwest;whiteSpace=wrap;html=1;" parent="ERO_cMUE3S481gdJ_7yT-95" vertex="1">
          <mxGeometry y="130" width="150" height="26" as="geometry" />
        </mxCell>
        <mxCell id="ERO_cMUE3S481gdJ_7yT-99" value="- inputSchema: String" style="text;strokeColor=none;fillColor=none;align=left;verticalAlign=top;spacingLeft=4;spacingRight=4;overflow=hidden;rotatable=0;points=[[0,0.5],[1,0.5]];portConstraint=eastwest;whiteSpace=wrap;html=1;" parent="ERO_cMUE3S481gdJ_7yT-95" vertex="1">
          <mxGeometry y="156" width="150" height="26" as="geometry" />
        </mxCell>
        <mxCell id="ERO_cMUE3S481gdJ_7yT-125" value="&lt;b&gt;GroMoKoSoMcpServerProvider&lt;/b&gt;" style="swimlane;fontStyle=0;childLayout=stackLayout;horizontal=1;startSize=26;fillColor=#ffe6cc;horizontalStack=0;resizeParent=1;resizeParentMax=0;resizeLast=0;collapsible=1;marginBottom=0;whiteSpace=wrap;html=1;strokeColor=#d79b00;" parent="ERO_cMUE3S481gdJ_7yT-139" vertex="1">
          <mxGeometry x="96" y="179" width="230" height="86" as="geometry" />
        </mxCell>
        <mxCell id="ERO_cMUE3S481gdJ_7yT-126" value="- toolFactory: ToolFactory" style="text;strokeColor=none;fillColor=none;align=left;verticalAlign=top;spacingLeft=4;spacingRight=4;overflow=hidden;rotatable=0;points=[[0,0.5],[1,0.5]];portConstraint=eastwest;whiteSpace=wrap;html=1;" parent="ERO_cMUE3S481gdJ_7yT-125" vertex="1">
          <mxGeometry y="26" width="230" height="26" as="geometry" />
        </mxCell>
        <mxCell id="ERO_cMUE3S481gdJ_7yT-128" value="" style="line;strokeWidth=1;fillColor=none;align=left;verticalAlign=middle;spacingTop=-1;spacingLeft=3;spacingRight=3;rotatable=0;labelPosition=right;points=[];portConstraint=eastwest;strokeColor=inherit;" parent="ERO_cMUE3S481gdJ_7yT-125" vertex="1">
          <mxGeometry y="52" width="230" height="8" as="geometry" />
        </mxCell>
        <mxCell id="ERO_cMUE3S481gdJ_7yT-133" value="+ builder()" style="text;strokeColor=none;fillColor=none;align=left;verticalAlign=top;spacingLeft=4;spacingRight=4;overflow=hidden;rotatable=0;points=[[0,0.5],[1,0.5]];portConstraint=eastwest;whiteSpace=wrap;html=1;" parent="ERO_cMUE3S481gdJ_7yT-125" vertex="1">
          <mxGeometry y="60" width="230" height="26" as="geometry" />
        </mxCell>
        <mxCell id="ERO_cMUE3S481gdJ_7yT-116" value="&lt;b&gt;GroMoKoSoMcpServerSpecification&lt;/b&gt;" style="swimlane;fontStyle=0;childLayout=stackLayout;horizontal=1;startSize=26;fillColor=none;horizontalStack=0;resizeParent=1;resizeParentMax=0;resizeLast=0;collapsible=1;marginBottom=0;whiteSpace=wrap;html=1;" parent="ERO_cMUE3S481gdJ_7yT-139" vertex="1">
          <mxGeometry x="21" y="379" width="380" height="216" as="geometry" />
        </mxCell>
        <mxCell id="ERO_cMUE3S481gdJ_7yT-117" value="- name: String" style="text;strokeColor=none;fillColor=none;align=left;verticalAlign=top;spacingLeft=4;spacingRight=4;overflow=hidden;rotatable=0;points=[[0,0.5],[1,0.5]];portConstraint=eastwest;whiteSpace=wrap;html=1;" parent="ERO_cMUE3S481gdJ_7yT-116" vertex="1">
          <mxGeometry y="26" width="380" height="26" as="geometry" />
        </mxCell>
        <mxCell id="ERO_cMUE3S481gdJ_7yT-118" value="- tools: List&amp;lt;McpServerFeatures.AsyncToolSpecification&amp;gt;" style="text;strokeColor=none;fillColor=none;align=left;verticalAlign=top;spacingLeft=4;spacingRight=4;overflow=hidden;rotatable=0;points=[[0,0.5],[1,0.5]];portConstraint=eastwest;whiteSpace=wrap;html=1;" parent="ERO_cMUE3S481gdJ_7yT-116" vertex="1">
          <mxGeometry y="52" width="380" height="26" as="geometry" />
        </mxCell>
        <mxCell id="ERO_cMUE3S481gdJ_7yT-119" value="" style="line;strokeWidth=1;fillColor=none;align=left;verticalAlign=middle;spacingTop=-1;spacingLeft=3;spacingRight=3;rotatable=0;labelPosition=right;points=[];portConstraint=eastwest;strokeColor=inherit;" parent="ERO_cMUE3S481gdJ_7yT-116" vertex="1">
          <mxGeometry y="78" width="380" height="8" as="geometry" />
        </mxCell>
        <mxCell id="ERO_cMUE3S481gdJ_7yT-120" value="- GroMoKoSoMcpServerSpecification()" style="text;strokeColor=none;fillColor=none;align=left;verticalAlign=top;spacingLeft=4;spacingRight=4;overflow=hidden;rotatable=0;points=[[0,0.5],[1,0.5]];portConstraint=eastwest;whiteSpace=wrap;html=1;" parent="ERO_cMUE3S481gdJ_7yT-116" vertex="1">
          <mxGeometry y="86" width="380" height="26" as="geometry" />
        </mxCell>
        <mxCell id="ERO_cMUE3S481gdJ_7yT-121" value="+ name(name: String): GroMoKoSoMcpServerSpecification" style="text;strokeColor=none;fillColor=none;align=left;verticalAlign=top;spacingLeft=4;spacingRight=4;overflow=hidden;rotatable=0;points=[[0,0.5],[1,0.5]];portConstraint=eastwest;whiteSpace=wrap;html=1;" parent="ERO_cMUE3S481gdJ_7yT-116" vertex="1">
          <mxGeometry y="112" width="380" height="26" as="geometry" />
        </mxCell>
        <mxCell id="ERO_cMUE3S481gdJ_7yT-124" value="+ addToolSet(toolSet: ToolSet): GroMoKoSoMcpServerSpecification" style="text;strokeColor=none;fillColor=none;align=left;verticalAlign=top;spacingLeft=4;spacingRight=4;overflow=hidden;rotatable=0;points=[[0,0.5],[1,0.5]];portConstraint=eastwest;whiteSpace=wrap;html=1;" parent="ERO_cMUE3S481gdJ_7yT-116" vertex="1">
          <mxGeometry y="138" width="380" height="26" as="geometry" />
        </mxCell>
        <mxCell id="ERO_cMUE3S481gdJ_7yT-122" value="+ addTool(tool: Tool): GroMoKoSoMcpServerSpecification" style="text;strokeColor=none;fillColor=none;align=left;verticalAlign=top;spacingLeft=4;spacingRight=4;overflow=hidden;rotatable=0;points=[[0,0.5],[1,0.5]];portConstraint=eastwest;whiteSpace=wrap;html=1;" parent="ERO_cMUE3S481gdJ_7yT-116" vertex="1">
          <mxGeometry y="164" width="380" height="26" as="geometry" />
        </mxCell>
        <mxCell id="ERO_cMUE3S481gdJ_7yT-123" value="+ build(): GroMoKoSoMcpServer" style="text;strokeColor=none;fillColor=none;align=left;verticalAlign=top;spacingLeft=4;spacingRight=4;overflow=hidden;rotatable=0;points=[[0,0.5],[1,0.5]];portConstraint=eastwest;whiteSpace=wrap;html=1;" parent="ERO_cMUE3S481gdJ_7yT-116" vertex="1">
          <mxGeometry y="190" width="380" height="26" as="geometry" />
        </mxCell>
        <mxCell id="ERO_cMUE3S481gdJ_7yT-134" value="" style="endArrow=open;startArrow=circlePlus;endFill=0;startFill=0;endSize=8;html=1;rounded=0;entryX=0.5;entryY=0;entryDx=0;entryDy=0;exitX=0.5;exitY=1;exitDx=0;exitDy=0;" parent="ERO_cMUE3S481gdJ_7yT-139" source="ERO_cMUE3S481gdJ_7yT-125" target="ERO_cMUE3S481gdJ_7yT-116" edge="1">
          <mxGeometry width="160" relative="1" as="geometry">
            <mxPoint x="211" y="279" as="sourcePoint" />
            <mxPoint x="91" y="179" as="targetPoint" />
          </mxGeometry>
        </mxCell>
        <mxCell id="ERO_cMUE3S481gdJ_7yT-108" value="&lt;b&gt;GroMoKoSoMcpServer&lt;/b&gt;" style="swimlane;fontStyle=0;childLayout=stackLayout;horizontal=1;startSize=26;fillColor=none;horizontalStack=0;resizeParent=1;resizeParentMax=0;resizeLast=0;collapsible=1;marginBottom=0;whiteSpace=wrap;html=1;" parent="ERO_cMUE3S481gdJ_7yT-139" vertex="1">
          <mxGeometry x="425" y="379" width="296" height="190" as="geometry" />
        </mxCell>
        <mxCell id="ERO_cMUE3S481gdJ_7yT-110" value="- server: McpAsyncServer" style="text;strokeColor=none;fillColor=none;align=left;verticalAlign=top;spacingLeft=4;spacingRight=4;overflow=hidden;rotatable=0;points=[[0,0.5],[1,0.5]];portConstraint=eastwest;whiteSpace=wrap;html=1;" parent="ERO_cMUE3S481gdJ_7yT-108" vertex="1">
          <mxGeometry y="26" width="296" height="26" as="geometry" />
        </mxCell>
        <mxCell id="ERO_cMUE3S481gdJ_7yT-111" value="- router: RouterFunction" style="text;strokeColor=none;fillColor=none;align=left;verticalAlign=top;spacingLeft=4;spacingRight=4;overflow=hidden;rotatable=0;points=[[0,0.5],[1,0.5]];portConstraint=eastwest;whiteSpace=wrap;html=1;" parent="ERO_cMUE3S481gdJ_7yT-108" vertex="1">
          <mxGeometry y="52" width="296" height="26" as="geometry" />
        </mxCell>
        <mxCell id="ERO_cMUE3S481gdJ_7yT-109" value="" style="line;strokeWidth=1;fillColor=none;align=left;verticalAlign=middle;spacingTop=-1;spacingLeft=3;spacingRight=3;rotatable=0;labelPosition=right;points=[];portConstraint=eastwest;strokeColor=inherit;" parent="ERO_cMUE3S481gdJ_7yT-108" vertex="1">
          <mxGeometry y="78" width="296" height="8" as="geometry" />
        </mxCell>
        <mxCell id="ERO_cMUE3S481gdJ_7yT-112" value="+ handle(request: ServerRequest): ServerResponse" style="text;strokeColor=none;fillColor=none;align=left;verticalAlign=top;spacingLeft=4;spacingRight=4;overflow=hidden;rotatable=0;points=[[0,0.5],[1,0.5]];portConstraint=eastwest;whiteSpace=wrap;html=1;" parent="ERO_cMUE3S481gdJ_7yT-108" vertex="1">
          <mxGeometry y="86" width="296" height="26" as="geometry" />
        </mxCell>
        <mxCell id="ERO_cMUE3S481gdJ_7yT-113" value="+ close()" style="text;strokeColor=none;fillColor=none;align=left;verticalAlign=top;spacingLeft=4;spacingRight=4;overflow=hidden;rotatable=0;points=[[0,0.5],[1,0.5]];portConstraint=eastwest;whiteSpace=wrap;html=1;" parent="ERO_cMUE3S481gdJ_7yT-108" vertex="1">
          <mxGeometry y="112" width="296" height="26" as="geometry" />
        </mxCell>
        <mxCell id="ERO_cMUE3S481gdJ_7yT-114" value="+ addToolSet(toolSet: ToolSet)" style="text;strokeColor=none;fillColor=none;align=left;verticalAlign=top;spacingLeft=4;spacingRight=4;overflow=hidden;rotatable=0;points=[[0,0.5],[1,0.5]];portConstraint=eastwest;whiteSpace=wrap;html=1;" parent="ERO_cMUE3S481gdJ_7yT-108" vertex="1">
          <mxGeometry y="138" width="296" height="26" as="geometry" />
        </mxCell>
        <mxCell id="ERO_cMUE3S481gdJ_7yT-115" value="+ addTool(tool: Tool)" style="text;strokeColor=none;fillColor=none;align=left;verticalAlign=top;spacingLeft=4;spacingRight=4;overflow=hidden;rotatable=0;points=[[0,0.5],[1,0.5]];portConstraint=eastwest;whiteSpace=wrap;html=1;" parent="ERO_cMUE3S481gdJ_7yT-108" vertex="1">
          <mxGeometry y="164" width="296" height="26" as="geometry" />
        </mxCell>
        <mxCell id="ERO_cMUE3S481gdJ_7yT-102" value="&lt;b&gt;ToolFactory&lt;/b&gt;" style="swimlane;fontStyle=0;childLayout=stackLayout;horizontal=1;startSize=26;fillColor=#ffe6cc;horizontalStack=0;resizeParent=1;resizeParentMax=0;resizeLast=0;collapsible=1;marginBottom=0;whiteSpace=wrap;html=1;strokeColor=#d79b00;" parent="ERO_cMUE3S481gdJ_7yT-139" vertex="1">
          <mxGeometry x="25" y="50" width="350" height="86" as="geometry" />
        </mxCell>
        <mxCell id="ERO_cMUE3S481gdJ_7yT-107" value="" style="line;strokeWidth=1;fillColor=none;align=left;verticalAlign=middle;spacingTop=-1;spacingLeft=3;spacingRight=3;rotatable=0;labelPosition=right;points=[];portConstraint=eastwest;strokeColor=inherit;" parent="ERO_cMUE3S481gdJ_7yT-102" vertex="1">
          <mxGeometry y="26" width="350" height="8" as="geometry" />
        </mxCell>
        <mxCell id="ERO_cMUE3S481gdJ_7yT-105" value="- invokeTool(args: Object...): Object" style="text;strokeColor=none;fillColor=none;align=left;verticalAlign=top;spacingLeft=4;spacingRight=4;overflow=hidden;rotatable=0;points=[[0,0.5],[1,0.5]];portConstraint=eastwest;whiteSpace=wrap;html=1;" parent="ERO_cMUE3S481gdJ_7yT-102" vertex="1">
          <mxGeometry y="34" width="350" height="26" as="geometry" />
        </mxCell>
        <mxCell id="ERO_cMUE3S481gdJ_7yT-106" value="+ create(tool: Tool): McpServerFeatures.AsyncToolSpecification" style="text;strokeColor=none;fillColor=none;align=left;verticalAlign=top;spacingLeft=4;spacingRight=4;overflow=hidden;rotatable=0;points=[[0,0.5],[1,0.5]];portConstraint=eastwest;whiteSpace=wrap;html=1;" parent="ERO_cMUE3S481gdJ_7yT-102" vertex="1">
          <mxGeometry y="60" width="350" height="26" as="geometry" />
        </mxCell>
        <mxCell id="ERO_cMUE3S481gdJ_7yT-155" value="client" style="shape=folder;fontStyle=1;tabWidth=110;tabHeight=30;tabPosition=left;html=1;boundedLbl=1;labelInHeader=1;container=1;collapsible=0;recursiveResize=0;whiteSpace=wrap;" parent="WIyWlLk6GJQsqaUBKTNV-1" vertex="1">
          <mxGeometry x="827" y="70" width="320" height="220" as="geometry" />
        </mxCell>
        <mxCell id="ERO_cMUE3S481gdJ_7yT-159" value="&lt;b&gt;UserManagementClient&lt;/b&gt;" style="swimlane;fontStyle=0;childLayout=stackLayout;horizontal=1;startSize=26;fillColor=#ffe6cc;horizontalStack=0;resizeParent=1;resizeParentMax=0;resizeLast=0;collapsible=1;marginBottom=0;whiteSpace=wrap;html=1;strokeColor=#d79b00;" parent="ERO_cMUE3S481gdJ_7yT-155" vertex="1">
          <mxGeometry x="23.5" y="140" width="273" height="60" as="geometry" />
        </mxCell>
        <mxCell id="ERO_cMUE3S481gdJ_7yT-160" value="" style="line;strokeWidth=1;fillColor=none;align=left;verticalAlign=middle;spacingTop=-1;spacingLeft=3;spacingRight=3;rotatable=0;labelPosition=right;points=[];portConstraint=eastwest;strokeColor=inherit;" parent="ERO_cMUE3S481gdJ_7yT-159" vertex="1">
          <mxGeometry y="26" width="273" height="8" as="geometry" />
        </mxCell>
        <mxCell id="ERO_cMUE3S481gdJ_7yT-162" value="+ getToolsForUser(userId: String): List&amp;lt;ToolSet&amp;gt;" style="text;strokeColor=none;fillColor=none;align=left;verticalAlign=top;spacingLeft=4;spacingRight=4;overflow=hidden;rotatable=0;points=[[0,0.5],[1,0.5]];portConstraint=eastwest;whiteSpace=wrap;html=1;" parent="ERO_cMUE3S481gdJ_7yT-159" vertex="1">
          <mxGeometry y="34" width="273" height="26" as="geometry" />
        </mxCell>
        <mxCell id="ERO_cMUE3S481gdJ_7yT-163" value="&lt;b&gt;ApiManagement&lt;/b&gt;" style="swimlane;fontStyle=0;childLayout=stackLayout;horizontal=1;startSize=26;fillColor=#ffe6cc;horizontalStack=0;resizeParent=1;resizeParentMax=0;resizeLast=0;collapsible=1;marginBottom=0;whiteSpace=wrap;html=1;strokeColor=#d79b00;" parent="ERO_cMUE3S481gdJ_7yT-155" vertex="1">
          <mxGeometry x="23.5" y="50" width="183" height="60" as="geometry" />
        </mxCell>
        <mxCell id="ERO_cMUE3S481gdJ_7yT-164" value="" style="line;strokeWidth=1;fillColor=none;align=left;verticalAlign=middle;spacingTop=-1;spacingLeft=3;spacingRight=3;rotatable=0;labelPosition=right;points=[];portConstraint=eastwest;strokeColor=inherit;" parent="ERO_cMUE3S481gdJ_7yT-163" vertex="1">
          <mxGeometry y="26" width="183" height="8" as="geometry" />
        </mxCell>
        <mxCell id="ERO_cMUE3S481gdJ_7yT-165" value="+ call(args: ApiArgsDto): String" style="text;strokeColor=none;fillColor=none;align=left;verticalAlign=top;spacingLeft=4;spacingRight=4;overflow=hidden;rotatable=0;points=[[0,0.5],[1,0.5]];portConstraint=eastwest;whiteSpace=wrap;html=1;" parent="ERO_cMUE3S481gdJ_7yT-163" vertex="1">
          <mxGeometry y="34" width="183" height="26" as="geometry" />
        </mxCell>
        <mxCell id="ERO_cMUE3S481gdJ_7yT-166" value="dto" style="shape=folder;fontStyle=1;tabWidth=110;tabHeight=30;tabPosition=left;html=1;boundedLbl=1;labelInHeader=1;container=1;collapsible=0;recursiveResize=0;whiteSpace=wrap;" parent="WIyWlLk6GJQsqaUBKTNV-1" vertex="1">
          <mxGeometry x="827" y="320" width="443" height="345" as="geometry" />
        </mxCell>
        <mxCell id="ERO_cMUE3S481gdJ_7yT-167" value="&lt;&lt;record&gt;&gt;&#xa;NewToolDto" style="swimlane;fontStyle=1;align=center;verticalAlign=top;childLayout=stackLayout;horizontal=1;startSize=48;horizontalStack=0;resizeParent=1;resizeLast=0;collapsible=1;marginBottom=0;rounded=0;shadow=0;strokeWidth=1;" parent="ERO_cMUE3S481gdJ_7yT-166" vertex="1">
          <mxGeometry x="25" y="55" width="230" height="108" as="geometry">
            <mxRectangle x="550" y="140" width="160" height="26" as="alternateBounds" />
          </mxGeometry>
        </mxCell>
        <mxCell id="ERO_cMUE3S481gdJ_7yT-168" value="" style="line;html=1;strokeWidth=1;align=left;verticalAlign=middle;spacingTop=-1;spacingLeft=3;spacingRight=3;rotatable=0;labelPosition=right;points=[];portConstraint=eastwest;" parent="ERO_cMUE3S481gdJ_7yT-167" vertex="1">
          <mxGeometry y="48" width="230" height="8" as="geometry" />
        </mxCell>
        <mxCell id="ERO_cMUE3S481gdJ_7yT-170" value="+ apiId: string" style="text;align=left;verticalAlign=top;spacingLeft=4;spacingRight=4;overflow=hidden;rotatable=0;points=[[0,0.5],[1,0.5]];portConstraint=eastwest;" parent="ERO_cMUE3S481gdJ_7yT-167" vertex="1">
          <mxGeometry y="56" width="230" height="26" as="geometry" />
        </mxCell>
        <mxCell id="ERO_cMUE3S481gdJ_7yT-169" value="+ toolSpecification: ToolSpecificationDto" style="text;align=left;verticalAlign=top;spacingLeft=4;spacingRight=4;overflow=hidden;rotatable=0;points=[[0,0.5],[1,0.5]];portConstraint=eastwest;" parent="ERO_cMUE3S481gdJ_7yT-167" vertex="1">
          <mxGeometry y="82" width="230" height="26" as="geometry" />
        </mxCell>
        <mxCell id="ERO_cMUE3S481gdJ_7yT-177" value="&lt;&lt;record&gt;&gt;&#xa;ToolDto" style="swimlane;fontStyle=1;align=center;verticalAlign=top;childLayout=stackLayout;horizontal=1;startSize=48;horizontalStack=0;resizeParent=1;resizeLast=0;collapsible=1;marginBottom=0;rounded=0;shadow=0;strokeWidth=1;" parent="ERO_cMUE3S481gdJ_7yT-166" vertex="1">
          <mxGeometry x="283" y="51" width="140" height="160" as="geometry">
            <mxRectangle x="550" y="140" width="160" height="26" as="alternateBounds" />
          </mxGeometry>
        </mxCell>
        <mxCell id="ERO_cMUE3S481gdJ_7yT-178" value="" style="line;html=1;strokeWidth=1;align=left;verticalAlign=middle;spacingTop=-1;spacingLeft=3;spacingRight=3;rotatable=0;labelPosition=right;points=[];portConstraint=eastwest;" parent="ERO_cMUE3S481gdJ_7yT-177" vertex="1">
          <mxGeometry y="48" width="140" height="8" as="geometry" />
        </mxCell>
        <mxCell id="ERO_cMUE3S481gdJ_7yT-179" value="+ name: String" style="text;align=left;verticalAlign=top;spacingLeft=4;spacingRight=4;overflow=hidden;rotatable=0;points=[[0,0.5],[1,0.5]];portConstraint=eastwest;" parent="ERO_cMUE3S481gdJ_7yT-177" vertex="1">
          <mxGeometry y="56" width="140" height="26" as="geometry" />
        </mxCell>
        <mxCell id="ERO_cMUE3S481gdJ_7yT-180" value="+ description: String" style="text;align=left;verticalAlign=top;spacingLeft=4;spacingRight=4;overflow=hidden;rotatable=0;points=[[0,0.5],[1,0.5]];portConstraint=eastwest;" parent="ERO_cMUE3S481gdJ_7yT-177" vertex="1">
          <mxGeometry y="82" width="140" height="26" as="geometry" />
        </mxCell>
        <mxCell id="ERO_cMUE3S481gdJ_7yT-182" value="+ requestMethod: String" style="text;align=left;verticalAlign=top;spacingLeft=4;spacingRight=4;overflow=hidden;rotatable=0;points=[[0,0.5],[1,0.5]];portConstraint=eastwest;" parent="ERO_cMUE3S481gdJ_7yT-177" vertex="1">
          <mxGeometry y="108" width="140" height="26" as="geometry" />
        </mxCell>
        <mxCell id="ERO_cMUE3S481gdJ_7yT-181" value="+ inputSchema: String" style="text;align=left;verticalAlign=top;spacingLeft=4;spacingRight=4;overflow=hidden;rotatable=0;points=[[0,0.5],[1,0.5]];portConstraint=eastwest;" parent="ERO_cMUE3S481gdJ_7yT-177" vertex="1">
          <mxGeometry y="134" width="140" height="26" as="geometry" />
        </mxCell>
        <mxCell id="ERO_cMUE3S481gdJ_7yT-171" value="&lt;&lt;record&gt;&gt;&#xa;ToolSpecificationDto" style="swimlane;fontStyle=1;align=center;verticalAlign=top;childLayout=stackLayout;horizontal=1;startSize=48;horizontalStack=0;resizeParent=1;resizeLast=0;collapsible=1;marginBottom=0;rounded=0;shadow=0;strokeWidth=1;" parent="ERO_cMUE3S481gdJ_7yT-166" vertex="1">
          <mxGeometry x="25" y="185" width="140" height="134" as="geometry">
            <mxRectangle x="550" y="140" width="160" height="26" as="alternateBounds" />
          </mxGeometry>
        </mxCell>
        <mxCell id="ERO_cMUE3S481gdJ_7yT-172" value="" style="line;html=1;strokeWidth=1;align=left;verticalAlign=middle;spacingTop=-1;spacingLeft=3;spacingRight=3;rotatable=0;labelPosition=right;points=[];portConstraint=eastwest;" parent="ERO_cMUE3S481gdJ_7yT-171" vertex="1">
          <mxGeometry y="48" width="140" height="8" as="geometry" />
        </mxCell>
        <mxCell id="ERO_cMUE3S481gdJ_7yT-173" value="+ name: String" style="text;align=left;verticalAlign=top;spacingLeft=4;spacingRight=4;overflow=hidden;rotatable=0;points=[[0,0.5],[1,0.5]];portConstraint=eastwest;" parent="ERO_cMUE3S481gdJ_7yT-171" vertex="1">
          <mxGeometry y="56" width="140" height="26" as="geometry" />
        </mxCell>
        <mxCell id="ERO_cMUE3S481gdJ_7yT-174" value="+ description: String" style="text;align=left;verticalAlign=top;spacingLeft=4;spacingRight=4;overflow=hidden;rotatable=0;points=[[0,0.5],[1,0.5]];portConstraint=eastwest;" parent="ERO_cMUE3S481gdJ_7yT-171" vertex="1">
          <mxGeometry y="82" width="140" height="26" as="geometry" />
        </mxCell>
        <mxCell id="ERO_cMUE3S481gdJ_7yT-175" value="+ tools: ToolDto[]" style="text;align=left;verticalAlign=top;spacingLeft=4;spacingRight=4;overflow=hidden;rotatable=0;points=[[0,0.5],[1,0.5]];portConstraint=eastwest;" parent="ERO_cMUE3S481gdJ_7yT-171" vertex="1">
          <mxGeometry y="108" width="140" height="26" as="geometry" />
        </mxCell>
        <mxCell id="ERO_cMUE3S481gdJ_7yT-183" value="repository" style="shape=folder;fontStyle=1;tabWidth=110;tabHeight=30;tabPosition=left;html=1;boundedLbl=1;labelInHeader=1;container=1;collapsible=0;recursiveResize=0;whiteSpace=wrap;" parent="WIyWlLk6GJQsqaUBKTNV-1" vertex="1">
          <mxGeometry x="40" y="760" width="740" height="220" as="geometry" />
        </mxCell>
        <mxCell id="ERO_cMUE3S481gdJ_7yT-62" value="&lt;&lt;interface&gt;&gt;&#xa;ToolSetRepository" style="swimlane;fontStyle=1;align=center;verticalAlign=top;childLayout=stackLayout;horizontal=1;startSize=48;horizontalStack=0;resizeParent=1;resizeLast=0;collapsible=1;marginBottom=0;rounded=0;shadow=0;strokeWidth=1;fillColor=#b1ddf0;strokeColor=#10739e;" parent="ERO_cMUE3S481gdJ_7yT-183" vertex="1">
          <mxGeometry x="140" y="136" width="210" height="60" as="geometry">
            <mxRectangle x="550" y="140" width="160" height="26" as="alternateBounds" />
          </mxGeometry>
        </mxCell>
        <mxCell id="ERO_cMUE3S481gdJ_7yT-63" value="" style="line;html=1;strokeWidth=1;align=left;verticalAlign=middle;spacingTop=-1;spacingLeft=3;spacingRight=3;rotatable=0;labelPosition=right;points=[];portConstraint=eastwest;" parent="ERO_cMUE3S481gdJ_7yT-62" vertex="1">
          <mxGeometry y="48" width="210" height="8" as="geometry" />
        </mxCell>
        <mxCell id="ERO_cMUE3S481gdJ_7yT-70" value="&lt;&lt;interface&gt;&gt;&#xa;ToolRepository" style="swimlane;fontStyle=1;align=center;verticalAlign=top;childLayout=stackLayout;horizontal=1;startSize=48;horizontalStack=0;resizeParent=1;resizeLast=0;collapsible=1;marginBottom=0;rounded=0;shadow=0;strokeWidth=1;fillColor=#b1ddf0;strokeColor=#10739e;" parent="ERO_cMUE3S481gdJ_7yT-183" vertex="1">
          <mxGeometry x="380" y="136" width="210" height="60" as="geometry">
            <mxRectangle x="550" y="140" width="160" height="26" as="alternateBounds" />
          </mxGeometry>
        </mxCell>
        <mxCell id="ERO_cMUE3S481gdJ_7yT-71" value="" style="line;html=1;strokeWidth=1;align=left;verticalAlign=middle;spacingTop=-1;spacingLeft=3;spacingRight=3;rotatable=0;labelPosition=right;points=[];portConstraint=eastwest;" parent="ERO_cMUE3S481gdJ_7yT-70" vertex="1">
          <mxGeometry y="48" width="210" height="8" as="geometry" />
        </mxCell>
        <mxCell id="ERO_cMUE3S481gdJ_7yT-67" value="&lt;b&gt;CrudRepository&lt;/b&gt;" style="swimlane;fontStyle=0;childLayout=stackLayout;horizontal=1;startSize=26;horizontalStack=0;resizeParent=1;resizeParentMax=0;resizeLast=0;collapsible=1;marginBottom=0;whiteSpace=wrap;html=1;" parent="ERO_cMUE3S481gdJ_7yT-183" vertex="1">
          <mxGeometry x="295" y="46" width="150" height="30" as="geometry" />
        </mxCell>
        <mxCell id="ERO_cMUE3S481gdJ_7yT-69" value="Extends" style="endArrow=block;endSize=16;endFill=0;html=1;rounded=0;exitX=0.5;exitY=0;exitDx=0;exitDy=0;entryX=0.25;entryY=1;entryDx=0;entryDy=0;" parent="ERO_cMUE3S481gdJ_7yT-183" source="ERO_cMUE3S481gdJ_7yT-62" target="ERO_cMUE3S481gdJ_7yT-67" edge="1">
          <mxGeometry width="160" relative="1" as="geometry">
            <mxPoint x="360" y="-124" as="sourcePoint" />
            <mxPoint x="330" y="76" as="targetPoint" />
          </mxGeometry>
        </mxCell>
        <mxCell id="ERO_cMUE3S481gdJ_7yT-72" value="Extends" style="endArrow=block;endSize=16;endFill=0;html=1;rounded=0;exitX=0.5;exitY=0;exitDx=0;exitDy=0;entryX=0.75;entryY=1;entryDx=0;entryDy=0;" parent="ERO_cMUE3S481gdJ_7yT-183" source="ERO_cMUE3S481gdJ_7yT-70" target="ERO_cMUE3S481gdJ_7yT-67" edge="1">
          <mxGeometry width="160" relative="1" as="geometry">
            <mxPoint x="320" y="146" as="sourcePoint" />
            <mxPoint x="400" y="76" as="targetPoint" />
          </mxGeometry>
        </mxCell>
        <mxCell id="ERO_cMUE3S481gdJ_7yT-185" value="service" style="shape=folder;fontStyle=1;tabWidth=110;tabHeight=30;tabPosition=left;html=1;boundedLbl=1;labelInHeader=1;container=1;collapsible=0;recursiveResize=0;whiteSpace=wrap;" parent="WIyWlLk6GJQsqaUBKTNV-1" vertex="1">
          <mxGeometry x="40" y="340" width="740" height="380" as="geometry" />
        </mxCell>
        <mxCell id="ERO_cMUE3S481gdJ_7yT-21" value="&lt;&lt;interface&gt;&gt;&#xa;ToolService" style="swimlane;fontStyle=1;align=center;verticalAlign=top;childLayout=stackLayout;horizontal=1;startSize=48;horizontalStack=0;resizeParent=1;resizeLast=0;collapsible=1;marginBottom=0;rounded=0;shadow=0;strokeWidth=1;fillColor=#f5f5f5;fontColor=#333333;strokeColor=#666666;" parent="ERO_cMUE3S481gdJ_7yT-185" vertex="1">
          <mxGeometry x="25" y="60" width="330" height="140" as="geometry">
            <mxRectangle x="550" y="140" width="160" height="26" as="alternateBounds" />
          </mxGeometry>
        </mxCell>
        <mxCell id="ERO_cMUE3S481gdJ_7yT-23" value="" style="line;html=1;strokeWidth=1;align=left;verticalAlign=middle;spacingTop=-1;spacingLeft=3;spacingRight=3;rotatable=0;labelPosition=right;points=[];portConstraint=eastwest;" parent="ERO_cMUE3S481gdJ_7yT-21" vertex="1">
          <mxGeometry y="48" width="330" height="8" as="geometry" />
        </mxCell>
        <mxCell id="ERO_cMUE3S481gdJ_7yT-24" value="+ addTool(tool: ToolSpecification)&#xa;&#xa;" style="text;align=left;verticalAlign=top;spacingLeft=4;spacingRight=4;overflow=hidden;rotatable=0;points=[[0,0.5],[1,0.5]];portConstraint=eastwest;" parent="ERO_cMUE3S481gdJ_7yT-21" vertex="1">
          <mxGeometry y="56" width="330" height="26" as="geometry" />
        </mxCell>
        <mxCell id="ERO_cMUE3S481gdJ_7yT-25" value="+ deleteTool(id: String)" style="text;strokeColor=none;fillColor=none;align=left;verticalAlign=top;spacingLeft=4;spacingRight=4;overflow=hidden;rotatable=0;points=[[0,0.5],[1,0.5]];portConstraint=eastwest;whiteSpace=wrap;html=1;" parent="ERO_cMUE3S481gdJ_7yT-21" vertex="1">
          <mxGeometry y="82" width="330" height="26" as="geometry" />
        </mxCell>
        <mxCell id="ERO_cMUE3S481gdJ_7yT-26" value="+ notifyUserToolsChanged(userId: String, toolIdList: string[])" style="text;strokeColor=none;fillColor=none;align=left;verticalAlign=top;spacingLeft=4;spacingRight=4;overflow=hidden;rotatable=0;points=[[0,0.5],[1,0.5]];portConstraint=eastwest;whiteSpace=wrap;html=1;" parent="ERO_cMUE3S481gdJ_7yT-21" vertex="1">
          <mxGeometry y="108" width="330" height="26" as="geometry" />
        </mxCell>
        <mxCell id="ERO_cMUE3S481gdJ_7yT-47" value="&lt;b&gt;ToolServiceImpl&lt;/b&gt;" style="swimlane;fontStyle=0;childLayout=stackLayout;horizontal=1;startSize=26;fillColor=#f8cecc;horizontalStack=0;resizeParent=1;resizeParentMax=0;resizeLast=0;collapsible=1;marginBottom=0;whiteSpace=wrap;html=1;strokeColor=#b85450;" parent="ERO_cMUE3S481gdJ_7yT-185" vertex="1">
          <mxGeometry x="25" y="268" width="330" height="78" as="geometry" />
        </mxCell>
        <mxCell id="ERO_cMUE3S481gdJ_7yT-48" value="- toolFactory: ToolFactory" style="text;strokeColor=none;fillColor=none;align=left;verticalAlign=top;spacingLeft=4;spacingRight=4;overflow=hidden;rotatable=0;points=[[0,0.5],[1,0.5]];portConstraint=eastwest;whiteSpace=wrap;html=1;" parent="ERO_cMUE3S481gdJ_7yT-47" vertex="1">
          <mxGeometry y="26" width="330" height="26" as="geometry" />
        </mxCell>
        <mxCell id="ERO_cMUE3S481gdJ_7yT-82" value="+ toolSetRepository: ToolSetRepository" style="text;strokeColor=none;fillColor=none;align=left;verticalAlign=top;spacingLeft=4;spacingRight=4;overflow=hidden;rotatable=0;points=[[0,0.5],[1,0.5]];portConstraint=eastwest;whiteSpace=wrap;html=1;" parent="ERO_cMUE3S481gdJ_7yT-47" vertex="1">
          <mxGeometry y="52" width="330" height="26" as="geometry" />
        </mxCell>
        <mxCell id="ERO_cMUE3S481gdJ_7yT-53" value="" style="endArrow=block;dashed=1;endFill=0;endSize=12;html=1;rounded=0;exitX=0.5;exitY=0;exitDx=0;exitDy=0;entryX=0.5;entryY=1;entryDx=0;entryDy=0;" parent="ERO_cMUE3S481gdJ_7yT-185" source="ERO_cMUE3S481gdJ_7yT-47" target="ERO_cMUE3S481gdJ_7yT-21" edge="1">
          <mxGeometry width="160" relative="1" as="geometry">
            <mxPoint x="245" y="68" as="sourcePoint" />
            <mxPoint x="405" y="68" as="targetPoint" />
          </mxGeometry>
        </mxCell>
        <mxCell id="ERO_cMUE3S481gdJ_7yT-41" value="&lt;&lt;interface&gt;&gt;&#xa;McpServerService" style="swimlane;fontStyle=1;align=center;verticalAlign=top;childLayout=stackLayout;horizontal=1;startSize=48;horizontalStack=0;resizeParent=1;resizeLast=0;collapsible=1;marginBottom=0;rounded=0;shadow=0;strokeWidth=1;fillColor=#f5f5f5;fontColor=#333333;strokeColor=#666666;" parent="ERO_cMUE3S481gdJ_7yT-185" vertex="1">
          <mxGeometry x="385" y="60" width="330" height="90" as="geometry">
            <mxRectangle x="550" y="140" width="160" height="26" as="alternateBounds" />
          </mxGeometry>
        </mxCell>
        <mxCell id="ERO_cMUE3S481gdJ_7yT-43" value="" style="line;html=1;strokeWidth=1;align=left;verticalAlign=middle;spacingTop=-1;spacingLeft=3;spacingRight=3;rotatable=0;labelPosition=right;points=[];portConstraint=eastwest;" parent="ERO_cMUE3S481gdJ_7yT-41" vertex="1">
          <mxGeometry y="48" width="330" height="8" as="geometry" />
        </mxCell>
        <mxCell id="ERO_cMUE3S481gdJ_7yT-44" value="+ getServerForUser" style="text;align=left;verticalAlign=top;spacingLeft=4;spacingRight=4;overflow=hidden;rotatable=0;points=[[0,0.5],[1,0.5]];portConstraint=eastwest;" parent="ERO_cMUE3S481gdJ_7yT-41" vertex="1">
          <mxGeometry y="56" width="330" height="26" as="geometry" />
        </mxCell>
        <mxCell id="ERO_cMUE3S481gdJ_7yT-51" value="&lt;b&gt;McpServerImpl&lt;/b&gt;" style="swimlane;fontStyle=0;childLayout=stackLayout;horizontal=1;startSize=26;fillColor=#f8cecc;horizontalStack=0;resizeParent=1;resizeParentMax=0;resizeLast=0;collapsible=1;marginBottom=0;whiteSpace=wrap;html=1;strokeColor=#b85450;" parent="ERO_cMUE3S481gdJ_7yT-185" vertex="1">
          <mxGeometry x="385" y="216" width="330" height="130" as="geometry" />
        </mxCell>
        <mxCell id="ERO_cMUE3S481gdJ_7yT-52" value="- serverProvider: GroMoKoSoMcpServerProvider" style="text;strokeColor=none;fillColor=none;align=left;verticalAlign=top;spacingLeft=4;spacingRight=4;overflow=hidden;rotatable=0;points=[[0,0.5],[1,0.5]];portConstraint=eastwest;whiteSpace=wrap;html=1;" parent="ERO_cMUE3S481gdJ_7yT-51" vertex="1">
          <mxGeometry y="26" width="330" height="26" as="geometry" />
        </mxCell>
        <mxCell id="ERO_cMUE3S481gdJ_7yT-57" value="- toolSetRepository: ToolsSetRepository" style="text;strokeColor=none;fillColor=none;align=left;verticalAlign=top;spacingLeft=4;spacingRight=4;overflow=hidden;rotatable=0;points=[[0,0.5],[1,0.5]];portConstraint=eastwest;whiteSpace=wrap;html=1;" parent="ERO_cMUE3S481gdJ_7yT-51" vertex="1">
          <mxGeometry y="52" width="330" height="26" as="geometry" />
        </mxCell>
        <mxCell id="ERO_cMUE3S481gdJ_7yT-59" value="- userManagement: UserManagementClient" style="text;strokeColor=none;fillColor=none;align=left;verticalAlign=top;spacingLeft=4;spacingRight=4;overflow=hidden;rotatable=0;points=[[0,0.5],[1,0.5]];portConstraint=eastwest;whiteSpace=wrap;html=1;" parent="ERO_cMUE3S481gdJ_7yT-51" vertex="1">
          <mxGeometry y="78" width="330" height="26" as="geometry" />
        </mxCell>
        <mxCell id="ERO_cMUE3S481gdJ_7yT-58" value="- servers: Map&amp;lt;String, GroMoKoSoMcpServer&amp;gt;" style="text;strokeColor=none;fillColor=none;align=left;verticalAlign=top;spacingLeft=4;spacingRight=4;overflow=hidden;rotatable=0;points=[[0,0.5],[1,0.5]];portConstraint=eastwest;whiteSpace=wrap;html=1;" parent="ERO_cMUE3S481gdJ_7yT-51" vertex="1">
          <mxGeometry y="104" width="330" height="26" as="geometry" />
        </mxCell>
        <mxCell id="ERO_cMUE3S481gdJ_7yT-54" value="" style="endArrow=block;dashed=1;endFill=0;endSize=12;html=1;rounded=0;exitX=0.5;exitY=0;exitDx=0;exitDy=0;entryX=0.5;entryY=1;entryDx=0;entryDy=0;" parent="ERO_cMUE3S481gdJ_7yT-185" source="ERO_cMUE3S481gdJ_7yT-51" target="ERO_cMUE3S481gdJ_7yT-41" edge="1">
          <mxGeometry width="160" relative="1" as="geometry">
            <mxPoint x="345" y="68" as="sourcePoint" />
            <mxPoint x="505" y="68" as="targetPoint" />
          </mxGeometry>
        </mxCell>
        <mxCell id="ERO_cMUE3S481gdJ_7yT-187" value="controller" style="shape=folder;fontStyle=1;tabWidth=110;tabHeight=30;tabPosition=left;html=1;boundedLbl=1;labelInHeader=1;container=1;collapsible=0;recursiveResize=0;whiteSpace=wrap;" parent="WIyWlLk6GJQsqaUBKTNV-1" vertex="1">
          <mxGeometry x="40" y="40" width="740" height="270" as="geometry" />
        </mxCell>
        <mxCell id="zkfFHV4jXpPFQw0GAbJ--17" value="WellKnownMetadataContoller" style="swimlane;fontStyle=1;align=center;verticalAlign=top;childLayout=stackLayout;horizontal=1;startSize=26;horizontalStack=0;resizeParent=1;resizeLast=0;collapsible=1;marginBottom=0;rounded=0;shadow=0;strokeWidth=1;fillColor=#dae8fc;strokeColor=#6c8ebf;" parent="ERO_cMUE3S481gdJ_7yT-187" vertex="1">
          <mxGeometry x="25" y="56" width="330" height="70" as="geometry">
            <mxRectangle x="550" y="140" width="160" height="26" as="alternateBounds" />
          </mxGeometry>
        </mxCell>
        <mxCell id="zkfFHV4jXpPFQw0GAbJ--23" value="" style="line;html=1;strokeWidth=1;align=left;verticalAlign=middle;spacingTop=-1;spacingLeft=3;spacingRight=3;rotatable=0;labelPosition=right;points=[];portConstraint=eastwest;" parent="zkfFHV4jXpPFQw0GAbJ--17" vertex="1">
          <mxGeometry y="26" width="330" height="8" as="geometry" />
        </mxCell>
        <mxCell id="zkfFHV4jXpPFQw0GAbJ--24" value="+ getProtectedResourceMetadata(): Map&lt;String, Object&gt;&#xa;" style="text;align=left;verticalAlign=top;spacingLeft=4;spacingRight=4;overflow=hidden;rotatable=0;points=[[0,0.5],[1,0.5]];portConstraint=eastwest;" parent="zkfFHV4jXpPFQw0GAbJ--17" vertex="1">
          <mxGeometry y="34" width="330" height="36" as="geometry" />
        </mxCell>
        <mxCell id="ERO_cMUE3S481gdJ_7yT-0" value="ToolController" style="swimlane;fontStyle=1;align=center;verticalAlign=top;childLayout=stackLayout;horizontal=1;startSize=26;horizontalStack=0;resizeParent=1;resizeLast=0;collapsible=1;marginBottom=0;rounded=0;shadow=0;strokeWidth=1;fillColor=#dae8fc;strokeColor=#6c8ebf;" parent="ERO_cMUE3S481gdJ_7yT-187" vertex="1">
          <mxGeometry x="385" y="56" width="330" height="138" as="geometry">
            <mxRectangle x="550" y="140" width="160" height="26" as="alternateBounds" />
          </mxGeometry>
        </mxCell>
        <mxCell id="ERO_cMUE3S481gdJ_7yT-3" value="- toolService: ToolService" style="text;strokeColor=none;fillColor=none;align=left;verticalAlign=top;spacingLeft=4;spacingRight=4;overflow=hidden;rotatable=0;points=[[0,0.5],[1,0.5]];portConstraint=eastwest;whiteSpace=wrap;html=1;" parent="ERO_cMUE3S481gdJ_7yT-0" vertex="1">
          <mxGeometry y="26" width="330" height="26" as="geometry" />
        </mxCell>
        <mxCell id="ERO_cMUE3S481gdJ_7yT-1" value="" style="line;html=1;strokeWidth=1;align=left;verticalAlign=middle;spacingTop=-1;spacingLeft=3;spacingRight=3;rotatable=0;labelPosition=right;points=[];portConstraint=eastwest;" parent="ERO_cMUE3S481gdJ_7yT-0" vertex="1">
          <mxGeometry y="52" width="330" height="8" as="geometry" />
        </mxCell>
        <mxCell id="ERO_cMUE3S481gdJ_7yT-2" value="+ addTool(tool: ToolSpecification)&#xa;&#xa;" style="text;align=left;verticalAlign=top;spacingLeft=4;spacingRight=4;overflow=hidden;rotatable=0;points=[[0,0.5],[1,0.5]];portConstraint=eastwest;" parent="ERO_cMUE3S481gdJ_7yT-0" vertex="1">
          <mxGeometry y="60" width="330" height="26" as="geometry" />
        </mxCell>
        <mxCell id="ERO_cMUE3S481gdJ_7yT-4" value="+ deleteTool(id: String)" style="text;strokeColor=none;fillColor=none;align=left;verticalAlign=top;spacingLeft=4;spacingRight=4;overflow=hidden;rotatable=0;points=[[0,0.5],[1,0.5]];portConstraint=eastwest;whiteSpace=wrap;html=1;" parent="ERO_cMUE3S481gdJ_7yT-0" vertex="1">
          <mxGeometry y="86" width="330" height="26" as="geometry" />
        </mxCell>
        <mxCell id="ERO_cMUE3S481gdJ_7yT-5" value="+ notifyUserToolsChanged(body: NewToolDto)" style="text;strokeColor=none;fillColor=none;align=left;verticalAlign=top;spacingLeft=4;spacingRight=4;overflow=hidden;rotatable=0;points=[[0,0.5],[1,0.5]];portConstraint=eastwest;whiteSpace=wrap;html=1;" parent="ERO_cMUE3S481gdJ_7yT-0" vertex="1">
          <mxGeometry y="112" width="330" height="26" as="geometry" />
        </mxCell>
        <mxCell id="ERO_cMUE3S481gdJ_7yT-6" value="McpHandler" style="swimlane;fontStyle=1;align=center;verticalAlign=top;childLayout=stackLayout;horizontal=1;startSize=26;horizontalStack=0;resizeParent=1;resizeLast=0;collapsible=1;marginBottom=0;rounded=0;shadow=0;strokeWidth=1;fillColor=#ffe6cc;strokeColor=#d79b00;" parent="ERO_cMUE3S481gdJ_7yT-187" vertex="1">
          <mxGeometry x="25" y="156" width="330" height="90" as="geometry">
            <mxRectangle x="550" y="140" width="160" height="26" as="alternateBounds" />
          </mxGeometry>
        </mxCell>
        <mxCell id="ERO_cMUE3S481gdJ_7yT-7" value="- toolService: McpServerService" style="text;strokeColor=none;fillColor=none;align=left;verticalAlign=top;spacingLeft=4;spacingRight=4;overflow=hidden;rotatable=0;points=[[0,0.5],[1,0.5]];portConstraint=eastwest;whiteSpace=wrap;html=1;" parent="ERO_cMUE3S481gdJ_7yT-6" vertex="1">
          <mxGeometry y="26" width="330" height="26" as="geometry" />
        </mxCell>
        <mxCell id="ERO_cMUE3S481gdJ_7yT-8" value="" style="line;html=1;strokeWidth=1;align=left;verticalAlign=middle;spacingTop=-1;spacingLeft=3;spacingRight=3;rotatable=0;labelPosition=right;points=[];portConstraint=eastwest;" parent="ERO_cMUE3S481gdJ_7yT-6" vertex="1">
          <mxGeometry y="52" width="330" height="8" as="geometry" />
        </mxCell>
        <mxCell id="ERO_cMUE3S481gdJ_7yT-9" value="+ handleRequest(request: ServerRequest): ServerResponse&#xa;&#xa;" style="text;align=left;verticalAlign=top;spacingLeft=4;spacingRight=4;overflow=hidden;rotatable=0;points=[[0,0.5],[1,0.5]];portConstraint=eastwest;" parent="ERO_cMUE3S481gdJ_7yT-6" vertex="1">
          <mxGeometry y="60" width="330" height="26" as="geometry" />
        </mxCell>
        <mxCell id="ERO_cMUE3S481gdJ_7yT-192" value="McpManagment - Class Diagram&lt;br&gt;Version 1.2 26.08.2015" style="text;align=left;fontStyle=1;verticalAlign=middle;spacingLeft=3;spacingRight=3;strokeColor=none;rotatable=0;points=[[0,0.5],[1,0.5]];portConstraint=eastwest;html=1;" parent="WIyWlLk6GJQsqaUBKTNV-1" vertex="1">
          <mxGeometry x="880" y="1360" width="440" height="26" as="geometry" />
        </mxCell>
        <mxCell id="10" value="" style="group" vertex="1" connectable="0" parent="WIyWlLk6GJQsqaUBKTNV-1">
          <mxGeometry x="880" y="1395" width="440" height="235" as="geometry" />
        </mxCell>
        <mxCell id="0" value="RestController" style="rounded=0;whiteSpace=wrap;html=1;fillColor=#dae8fc;strokeColor=#6c8ebf;" vertex="1" parent="10">
          <mxGeometry x="20" y="74" width="120" height="60" as="geometry" />
        </mxCell>
        <mxCell id="1" value="Service" style="rounded=0;whiteSpace=wrap;html=1;fillColor=#f8cecc;strokeColor=#b85450;" vertex="1" parent="10">
          <mxGeometry x="160" y="74" width="120" height="60" as="geometry" />
        </mxCell>
        <mxCell id="2" value="Component" style="rounded=0;whiteSpace=wrap;html=1;fillColor=#ffe6cc;strokeColor=#d79b00;" vertex="1" parent="10">
          <mxGeometry x="20" y="154" width="120" height="60" as="geometry" />
        </mxCell>
        <mxCell id="3" value="Repository" style="rounded=0;whiteSpace=wrap;html=1;fillColor=#b1ddf0;strokeColor=#10739e;" vertex="1" parent="10">
          <mxGeometry x="160" y="154" width="120" height="60" as="geometry" />
        </mxCell>
        <mxCell id="4" value="Configuration" style="rounded=0;whiteSpace=wrap;html=1;fillColor=#d5e8d4;strokeColor=#82b366;" vertex="1" parent="10">
          <mxGeometry x="300" y="74" width="120" height="60" as="geometry" />
        </mxCell>
        <mxCell id="5" value="Entity" style="rounded=0;whiteSpace=wrap;html=1;fillColor=#e1d5e7;strokeColor=#9673a6;" vertex="1" parent="10">
          <mxGeometry x="300" y="154" width="120" height="60" as="geometry" />
        </mxCell>
        <mxCell id="7" value="Legend" style="text;html=1;strokeColor=none;fillColor=none;align=center;verticalAlign=middle;whiteSpace=wrap;rounded=0;fontStyle=1;fontSize=20;" vertex="1" parent="10">
          <mxGeometry x="20" y="14" width="60" height="30" as="geometry" />
        </mxCell>
        <mxCell id="9" value="" style="rounded=0;whiteSpace=wrap;html=1;fillColor=none;dashed=1;" vertex="1" parent="10">
          <mxGeometry width="440" height="235" as="geometry" />
        </mxCell>
      </root>
    </mxGraphModel>
  </diagram>
</mxfile>
